# xmcd
# 
# Track frame offsets:
#     150
#     19129
#     34533
#     48656
#     63715
#     75236
#     92080
#     108020
#     121095
#     132125
#     143917
#     165839
# 
# Disc length: 2338
# 
# Revision: 2
# Processed by: cddbd v1.5.2PL0 Copyright (c) Steve Scherf et al.
# Submitted via: fre:ac v1.0.31
# 
DISCID=8c09200c
DTITLE=Pixies - Beneath The Eyrie
DYEAR=2019
DGENRE=Rock/Pop
TTITLE0=In The Arms Of Mrs. Mark Of Cain
TTITLE1=On Graveyard Hill
TTITLE2=Catfish Kate
TTITLE3=This Is My Fate
TTITLE4=Ready For Love
TTITLE5=Silver Bullet
TTITLE6=Long Rider
TTITLE7=Los Surfers Muertos
TTITLE8=St. Nazaire
TTITLE9=Bird Of Prey
TTITLE10=Daniel Boone
TTITLE11=Death Horizon
EXTD=MARO\n
EXTT0=
EXTT1=
EXTT2=
EXTT3=
EXTT4=
EXTT5=
EXTT6=
EXTT7=
EXTT8=
EXTT9=
EXTT10=
EXTT11=
PLAYORDER=
